<svg width="36" height="36" viewBox="0 0 36 36" fill="none" xmlns="http://www.w3.org/2000/svg" xmlns:xlink="http://www.w3.org/1999/xlink">
<path d="M30.14,10.02L13.02,1.46C1.52,-4.3 -3.2,0.42 2.56,11.92L4.3,15.4C4.8,16.42 4.8,17.6 4.3,18.62L2.56,22.08C-3.2,33.58 1.5,38.3 13.02,32.54L30.14,23.98C37.82,20.14 37.82,13.86 30.14,10.02ZM23.68,18.5L12.88,18.5C12.06,18.5 11.38,17.82 11.38,17C11.38,16.18 12.06,15.5 12.88,15.5L23.68,15.5C24.5,15.5 25.18,16.18 25.18,17C25.18,17.82 24.5,18.5 23.68,18.5Z" fill="#3369FF"/>
</svg>
